<svg width="33" height="34" viewBox="0 0 33 34" fill="none" xmlns="http://www.w3.org/2000/svg">
<path d="M16.4706 3.29383C18.6607 3.29383 20.0907 3.30446 20.7604 3.32572C21.4302 3.34698 22.201 3.36825 23.0728 3.38951C23.8595 3.43204 24.4868 3.50646 24.9546 3.61277C25.4224 3.71909 25.8051 3.83603 26.1028 3.96361C26.4855 4.11246 26.8204 4.27724 27.1075 4.45798C27.3945 4.63871 27.6762 4.87792 27.9527 5.17561C28.2503 5.45202 28.4949 5.73907 28.6862 6.03676C28.8776 6.33444 29.0477 6.67465 29.1965 7.05738C29.3241 7.3338 29.4411 7.71122 29.5474 8.18964C29.6537 8.66806 29.7281 9.30063 29.7706 10.0874C29.7919 10.9379 29.8132 11.7034 29.8344 12.3838C29.8557 13.0642 29.8663 14.4994 29.8663 16.6895C29.8663 18.8796 29.8557 20.3096 29.8344 20.9793C29.8132 21.6491 29.7919 22.4199 29.7706 23.2917C29.7281 24.0784 29.6537 24.7057 29.5474 25.1735C29.4411 25.6413 29.3241 26.0134 29.1965 26.2898C29.0477 26.6725 28.8776 27.0127 28.6862 27.3104C28.4949 27.6081 28.2503 27.8951 27.9527 28.1716C27.6762 28.4692 27.3945 28.7085 27.1075 28.8892C26.8204 29.0699 26.4855 29.2347 26.1028 29.3836C25.8051 29.5111 25.4224 29.6281 24.9546 29.7344C24.4868 29.8407 23.8595 29.9151 23.0728 29.9577C22.201 30.0002 21.4302 30.0268 20.7604 30.0374C20.0907 30.048 18.6607 30.0533 16.4706 30.0533C14.2805 30.0533 12.8506 30.048 12.1808 30.0374C11.511 30.0268 10.7402 30.0002 9.86846 29.9577C9.08173 29.9151 8.45447 29.8407 7.98668 29.7344C7.51889 29.6281 7.14679 29.5111 6.87037 29.3836C6.48764 29.2347 6.14743 29.0699 5.84975 28.8892C5.55206 28.7085 5.26501 28.4692 4.98859 28.1716C4.69091 27.8951 4.4517 27.6081 4.27097 27.3104C4.09023 27.0127 3.92544 26.6725 3.7766 26.2898C3.64902 26.0134 3.53208 25.6413 3.42576 25.1735C3.31945 24.7057 3.23439 24.0784 3.17061 23.2917C3.14934 22.4199 3.12808 21.6438 3.10682 20.9634C3.08555 20.283 3.07492 18.8584 3.07492 16.6895C3.07492 14.5207 3.08555 13.0908 3.10682 12.3997C3.12808 11.7087 3.14934 10.9379 3.17061 10.0874C3.23439 9.30063 3.31945 8.67337 3.42576 8.20559C3.53208 7.7378 3.64902 7.35506 3.7766 7.05738C3.92544 6.67465 4.09023 6.33976 4.27097 6.05271C4.4517 5.76565 4.69091 5.48392 4.98859 5.2075C5.26501 4.90982 5.54675 4.66529 5.8338 4.47393C6.12085 4.28256 6.45574 4.11246 6.83848 3.96361C7.13616 3.83603 7.51889 3.71909 7.98668 3.61277C8.45447 3.50646 9.08173 3.43204 9.86846 3.38951C10.7402 3.36825 11.511 3.34698 12.1808 3.32572C12.8506 3.30446 14.2805 3.29383 16.4706 3.29383ZM16.4706 0.359531C14.2593 0.359531 12.8028 0.370163 12.1011 0.391426C11.3994 0.412689 10.6127 0.433952 9.74088 0.455215C8.86909 0.497742 8.11957 0.582794 7.49231 0.710373C6.86506 0.837948 6.29627 1.00805 5.78596 1.22068C5.25438 1.43331 4.7547 1.68847 4.28691 1.98615C3.81913 2.28383 3.35134 2.65594 2.88355 3.10246C2.43703 3.57025 2.06493 4.03803 1.76725 4.50582C1.46956 4.97361 1.21441 5.46266 1.00178 5.97297C0.789147 6.50455 0.619043 7.08396 0.491465 7.71122C0.363887 8.33848 0.278835 9.088 0.236309 9.95979C0.215046 10.8316 0.193783 11.6183 0.17252 12.32C0.151257 13.0217 0.140625 14.4782 0.140625 16.6895C0.140625 18.9009 0.151257 20.3574 0.17252 21.0591C0.193783 21.7608 0.215046 22.5475 0.236309 23.4193C0.278835 24.2911 0.363887 25.0406 0.491465 25.6678C0.619043 26.2951 0.789147 26.8639 1.00178 27.3742C1.21441 27.9058 1.46956 28.4055 1.76725 28.8732C2.06493 29.341 2.43703 29.8088 2.88355 30.2766C3.35134 30.7231 3.81913 31.0952 4.28691 31.3929C4.7547 31.6906 5.25438 31.9457 5.78596 32.1584C6.29627 32.371 6.86506 32.5411 7.49231 32.6687C8.11957 32.7963 8.86909 32.8813 9.74088 32.9238C10.6127 32.9451 11.3994 32.9664 12.1011 32.9876C12.8028 33.0089 14.2593 33.0195 16.4706 33.0195C18.682 33.0195 20.1385 33.0089 20.8402 32.9876C21.5419 32.9664 22.3286 32.9451 23.2004 32.9238C24.0722 32.8813 24.8217 32.7963 25.4489 32.6687C26.0762 32.5411 26.645 32.371 27.1553 32.1584C27.6869 31.9457 28.1866 31.6906 28.6543 31.3929C29.1221 31.0952 29.5899 30.7231 30.0577 30.2766C30.5042 29.8088 30.8763 29.341 31.174 28.8732C31.4717 28.4055 31.7162 27.9058 31.9076 27.3742C32.1202 26.8639 32.2956 26.2951 32.4338 25.6678C32.572 25.0406 32.6624 24.2911 32.7049 23.4193C32.7262 22.5475 32.7422 21.7608 32.7528 21.0591C32.7634 20.3574 32.7687 18.9009 32.7687 16.6895C32.7687 14.4782 32.7634 13.0217 32.7528 12.32C32.7422 11.6183 32.7262 10.8316 32.7049 9.95979C32.6624 9.088 32.572 8.33848 32.4338 7.71122C32.2956 7.08396 32.1202 6.51518 31.9076 6.00486C31.7162 5.47329 31.4717 4.97361 31.174 4.50582C30.8763 4.03803 30.5042 3.57025 30.0577 3.10246C29.5899 2.65594 29.1221 2.28383 28.6543 1.98615C28.1866 1.68847 27.6975 1.43331 27.1872 1.22068C26.6556 1.00805 26.0762 0.837948 25.4489 0.710373C24.8217 0.582794 24.0722 0.497742 23.2004 0.455215C22.3286 0.433952 21.5419 0.412689 20.8402 0.391426C20.1385 0.370163 18.682 0.359531 16.4706 0.359531ZM16.4706 8.30127C15.3012 8.30127 14.2167 8.52453 13.2174 8.97105C12.1968 9.39631 11.3037 9.99168 10.5382 10.7571C9.77277 11.5226 9.17741 12.4157 8.75215 13.4363C8.30562 14.4357 8.08236 15.5201 8.08236 16.6895C8.08236 17.859 8.30562 18.9434 8.75215 19.9428C9.17741 20.9634 9.77277 21.8564 10.5382 22.6219C11.3037 23.3874 12.1968 23.9827 13.2174 24.408C14.2167 24.8545 15.3012 25.0778 16.4706 25.0778C17.6401 25.0778 18.7245 24.8545 19.7239 24.408C20.7445 23.9827 21.6375 23.3874 22.403 22.6219C23.1685 21.8564 23.7638 20.9634 24.1891 19.9428C24.6356 18.9434 24.8589 17.859 24.8589 16.6895C24.8589 15.5201 24.6356 14.4357 24.1891 13.4363C23.7638 12.4157 23.1685 11.5226 22.403 10.7571C21.6375 9.99168 20.7445 9.39631 19.7239 8.97105C18.7245 8.52453 17.6401 8.30127 16.4706 8.30127ZM16.4706 22.1435C14.961 22.1435 13.6745 21.6119 12.6114 20.5488C11.5482 19.4856 11.0167 18.1992 11.0167 16.6895C11.0167 15.1799 11.5482 13.8934 12.6114 12.8303C13.6745 11.7671 14.961 11.2356 16.4706 11.2356C17.9803 11.2356 19.2667 11.7671 20.3299 12.8303C21.393 13.8934 21.9246 15.1799 21.9246 16.6895C21.9246 18.1992 21.393 19.4856 20.3299 20.5488C19.2667 21.6119 17.9803 22.1435 16.4706 22.1435ZM27.1553 7.98232C27.1553 8.5139 26.9639 8.97105 26.5812 9.35379C26.1985 9.73652 25.7307 9.92789 25.1778 9.92789C24.6463 9.92789 24.1891 9.73652 23.8064 9.35379C23.4236 8.97105 23.2323 8.5139 23.2323 7.98232C23.2323 7.42949 23.4236 6.9617 23.8064 6.57896C24.1891 6.19623 24.6463 6.00486 25.1778 6.00486C25.7307 6.00486 26.1985 6.19623 26.5812 6.57896C26.9639 6.9617 27.1553 7.42949 27.1553 7.98232Z" fill="black"/>
</svg>
